# xmcd CD database file
#
# Track frame offsets:
#	150
#	23247
#	45462
#	68902
#	101760
#	119562
#	133145
#	162630
#	178045
#	206437
#	231567
#
# Disc length: 3357 seconds
#
# Revision: 2
# Processed by: cddbd v1.5.2PL0 Copyright (c) Steve Scherf et al.
# Submitted via: CDex 1.70beta2
#
DISCID=a40d1b0b
DTITLE=Christian Willisohn - Blues on the World
DYEAR=1995
DGENRE=Blues
TTITLE0=Little Angel
TTITLE1=Blues on the World
TTITLE2=Diddlin'
TTITLE3=Tin Pan Alley
TTITLE4=See See Rider
TTITLE5=Sykesism
TTITLE6=Let Them Talk
TTITLE7=Mystery Train
TTITLE8=I'd Rather Go Blind
TTITLE9=Baby What You Want Me To Do
TTITLE10=How Long
EXTD=YEAR: 1995
EXTT0=
EXTT1=
EXTT2=
EXTT3=
EXTT4=
EXTT5=
EXTT6=
EXTT7=
EXTT8=
EXTT9=
EXTT10=
PLAYORDER=
